<?xml version="1.0" encoding="UTF-8"?>
<svg width="50px" height="49px" viewBox="0 0 50 49" version="1.1" xmlns="http://www.w3.org/2000/svg" xmlns:xlink="http://www.w3.org/1999/xlink">
    <!-- Generator: Sketch 47 (45396) - http://www.bohemiancoding.com/sketch -->
    <title>Shape</title>
    <desc>Created with Sketch.</desc>
    <defs></defs>
    <g id="Page-1" stroke="none" stroke-width="1" fill="none" fill-rule="evenodd">
        <g id="poet" fill-rule="nonzero" fill="#FFFFFF">
            <g id="Shape">
                <g id="Group" transform="translate(0.023072, 0.027688)">
                    <path d="M0.0636363122,47.9952793 L6.98628806,40.9233422 L6.98628806,27.5685683 L29.969766,4.11530803 L29.969766,4.09533081 C30.2664091,3.79567245 30.5630522,3.4960141 30.8587163,3.19635575 C30.892003,3.16638992 30.9243107,3.12643547 30.9585764,3.09646963 C31.0398351,3.01656074 31.1230518,2.93665185 31.2072475,2.86673156 C31.4001145,2.68693655 31.5988556,2.51713015 31.8034708,2.35731237 C31.911163,2.26741486 32.0198343,2.18750597 32.1304636,2.10759707 C32.3184354,1.96775651 32.5113024,1.83790456 32.7080855,1.7080526 C32.7560575,1.67808677 32.8040294,1.64812093 32.8520014,1.6181551 C33.0487845,1.49829176 33.2504626,1.38841703 33.4550779,1.2785423 C33.7644482,1.11872451 34.0816508,0.968895337 34.4057065,0.839043385 C34.8883634,0.649259762 35.3847267,0.489441974 35.8899011,0.369578634 C36.3882223,0.249715293 36.8963338,0.159817788 37.4073824,0.119863341 C37.5552144,0.109874729 37.7030465,0.0998861172 37.8508785,0.0898975055 C37.9801092,0.0799088938 38.1083608,0.0799088938 38.2375915,0.0799088938 C38.2992698,0.0799088938 38.361927,0.0799088938 38.4245843,0.0799088938 C38.5107381,0.0799088938 38.5959129,0.0799088938 38.6820666,0.0799088938 C38.9375909,0.0898975055 39.1931152,0.109874729 39.4466814,0.139840564 C39.95773,0.189783623 40.4638834,0.279681128 40.9612256,0.409533081 C41.2725541,0.489441974 41.5809454,0.589328092 41.8844417,0.69920282 C42.0283577,0.749145879 42.1703156,0.799088938 42.3112945,0.859020608 C43.0347904,1.15867896 43.7249996,1.52825759 44.3682159,1.97774512 C45.5665366,2.81678851 46.5974449,3.90554718 47.3747869,5.15412365 C47.6910104,5.66354285 47.9651361,6.20292788 48.1942268,6.76229013 C48.3694714,7.18181183 48.5182825,7.62131074 48.639681,8.07079827 C48.9353451,9.15955695 49.0626177,10.3082473 49.0166038,11.4369604 C48.9862541,12.1761177 48.881499,12.915275 48.7052753,13.634455 C48.5740866,14.17384 48.4027581,14.6932478 48.1942268,15.202667 C47.9954857,15.6821204 47.7605209,16.1615738 47.4952064,16.6110613 C47.3238778,16.900731 47.138843,17.1804122 46.94206,17.4501047 C46.7139483,17.7697403 46.4682142,18.0693986 46.2087739,18.3590683 C46.116746,18.4589545 46.02276,18.5588406 45.9277951,18.6587267 L45.9013615,18.6787039 C45.7995434,18.7885786 45.6957673,18.8884648 45.5900331,18.9883509 C45.4725507,19.0982256 45.3521312,19.2081003 45.2297537,19.3079865 L45.2835998,19.268032 L22.067115,42.9510304 L8.89537743,42.9510304 L3.95817862,47.9952793 L0.0636363122,47.9952793 Z M25.4976018,35.3297197 L16.3633434,35.3297197 L11.7502003,40.0443444 L20.8844587,40.0443444 L25.4976018,35.3297197 Z M9.84111093,28.7771904 L9.84111093,38.0166562 L14.452296,33.3120201 L14.452296,24.0725542 L9.84111093,28.7771904 Z M33.463889,27.2089783 L24.3296307,27.2089783 L19.1173272,32.5229198 L28.2515856,32.5229198 L33.463889,27.2089783 Z M17.2062798,21.2557657 L17.2062798,30.5052202 L22.3686533,25.2312332 L22.3686533,15.9917674 L17.2062798,21.2557657 Z M41.5280783,18.9783623 L32.394799,18.9783623 L27.0836145,24.3921898 L36.2168938,24.3921898 L41.5280783,18.9783623 Z M25.121658,13.1849675 L25.121658,22.4244333 L30.4328425,17.0106058 L30.4328425,7.76115131 L25.121658,13.1849675 Z M44.2938104,16.1715624 C44.6893345,15.7020976 45.0310126,15.1826898 45.3090543,14.6233276 C45.5224807,14.2038059 45.6987043,13.7543183 45.8347881,13.3048308 C45.9757671,12.8253774 46.07269,12.3359355 46.1245781,11.8365049 C46.215627,10.9874729 46.169613,10.1084751 45.9884943,9.26943168 C45.8328301,8.54026302 45.5773058,7.83107159 45.2297537,7.18181183 C45.0290545,6.80224458 44.7980058,6.44265456 44.5395444,6.10304176 C44.032412,5.43380478 43.4205244,4.84447668 42.7352102,4.36502332 C42.1663995,3.97546746 41.5457007,3.65583189 40.8956313,3.42609382 C40.3454219,3.2363102 39.7746532,3.10645825 39.1970313,3.03653796 C39.0257027,3.01656074 38.8543742,3.00657213 38.6820666,2.99658352 C38.5890597,2.99658352 38.4950738,2.99658352 38.4010879,2.99658352 C38.3697592,2.99658352 38.3384306,2.99658352 38.3071019,2.99658352 C38.2454236,2.99658352 38.1827664,2.99658352 38.1201091,2.99658352 C37.9791302,2.99658352 37.8391303,3.00657213 37.6981514,3.01656074 C37.292837,3.04652657 36.8894807,3.11644686 36.4929775,3.21633297 C36.0631876,3.31621909 35.642209,3.46604827 35.2368946,3.64584328 C34.8247271,3.82563829 34.4272449,4.04538775 34.0522802,4.29510304 C33.7713014,4.48488666 33.5030499,4.6846589 33.2485046,4.91439697 C33.2279452,4.92438558 33.2064067,4.9443628 33.1868263,4.96434003 L33.1868263,14.1938173 L38.3766124,8.89985304 C38.4715773,8.82993276 38.5577311,8.74003526 38.6615072,8.68010359 C38.941507,8.51029719 39.036472,8.53027441 39.3497584,8.49031996 C39.4682199,8.51029719 39.5866813,8.5202858 39.7061218,8.54026302 C39.9978698,8.66012636 40.0938138,8.67011497 40.3229045,8.89985304 C40.4080792,8.98975055 40.4824848,9.08963667 40.542205,9.18952278 C40.6626245,9.40927224 40.7262608,9.64899892 40.7262608,9.89871421 C40.7262608,10.0185776 40.7105965,10.1384409 40.6792678,10.2583042 C40.5960511,10.5779398 40.5157715,10.6278829 40.3229045,10.8875868 L35.1478038,16.1715624 L44.2938104,16.1715624 Z" id="Shape"></path>
                </g>
            </g>
        </g>
    </g>
</svg>